<svg xmlns:xlink="http://www.w3.org/1999/xlink" xmlns="http://www.w3.org/2000/svg" width="24" height="24" viewBox="0 0 24 24" fill="white" stroke="#75787e" stroke-width="2" stroke-linecap="round" stroke-linejoin="round" class="group-hover:fill-white group-hover:stroke-title md:h-4 md:w-4 xl:h-5 xl:w-5"><path d="M15 22v-4a4.8 4.8 0 0 0-1-3.5c3 0 6-2 6-5.5.08-1.25-.27-2.48-1-3.5.28-1.15.28-2.35 0-3.5 0 0-1 0-3 1.5-2.64-.5-5.36-.5-8 0C6 2 5 2 5 2c-.3 1.15-.3 2.35 0 3.5A5.403 5.403 0 0 0 4 9c0 3.5 3 5.5 6 5.5-.39.49-.68 1.05-.85 1.65-.17.6-.22 1.23-.15 1.85v4" stroke="#75787E" fill="#FFFFFF" stroke-width="2px"></path><path d="M9 18c-4.51 2-5-2-7-2" stroke="#75787E" fill="#FFFFFF" stroke-width="2px"></path></svg>